<svg xmlns="http://www.w3.org/2000/svg" xmlns:xlink="http://www.w3.org/1999/xlink" width="794" zoomAndPan="magnify" viewBox="0 0 595.5 595.499986" height="794" preserveAspectRatio="xMidYMid meet" version="1.0"><defs><clipPath id="8b11fbb1bf"><path d="M 0 0 L 595 0 L 595 595 L 0 595 Z M 0 0 " clip-rule="nonzero"/></clipPath><clipPath id="4cc736301d"><rect x="0" width="595" y="0" height="595"/></clipPath></defs><g transform="matrix(1, 0, 0, 1, 0, 0)"><g clip-path="url(#4cc736301d)"><g clip-path="url(#8b11fbb1bf)"><path fill="#1877f2" d="M 594.992188 299.316406 C 594.992188 133.984375 461.785156 -0.0390625 297.496094 -0.0390625 C 133.128906 0 -0.0742188 133.984375 -0.0742188 299.355469 C -0.0742188 448.734375 108.734375 572.566406 250.9375 595.027344 L 250.9375 385.851562 L 175.449219 385.851562 L 175.449219 299.355469 L 251.011719 299.355469 L 251.011719 233.347656 C 251.011719 158.34375 295.449219 116.914062 363.390625 116.914062 C 395.964844 116.914062 429.992188 122.753906 429.992188 122.753906 L 429.992188 196.382812 L 392.46875 196.382812 C 355.542969 196.382812 344.015625 219.476562 344.015625 243.164062 L 344.015625 299.316406 L 426.496094 299.316406 L 413.332031 385.8125 L 343.980469 385.8125 L 343.980469 594.992188 C 486.179688 572.53125 594.992188 448.695312 594.992188 299.316406 " fill-opacity="1" fill-rule="nonzero"/></g></g></g></svg>