<svg xmlns="http://www.w3.org/2000/svg" xmlns:xlink="http://www.w3.org/1999/xlink" width="794" zoomAndPan="magnify" viewBox="0 0 595.5 595.499986" height="794" preserveAspectRatio="xMidYMid meet" version="1.0"><defs><clipPath id="0a84d23430"><rect x="0" width="595" y="0" height="595"/></clipPath></defs><g transform="matrix(1, 0, 0, 1, 0, 0)"><g clip-path="url(#0a84d23430)"><path fill="#dd2a75" d="M 297.496094 0 C 216.761719 0 206.609375 0.371094 174.890625 1.785156 C 143.167969 3.273438 121.5625 8.253906 102.636719 15.617188 C 92.703125 19.34375 83.292969 24.101562 74.40625 29.890625 C 65.519531 35.679688 57.363281 42.363281 49.941406 49.941406 C 42.363281 57.363281 35.679688 65.519531 29.890625 74.40625 C 24.101562 83.292969 19.34375 92.703125 15.617188 102.636719 C 8.253906 121.527344 3.234375 143.167969 1.785156 174.777344 C 0.371094 206.574219 0 216.6875 0 297.53125 C 0 378.300781 0.371094 388.417969 1.785156 420.136719 C 3.273438 451.820312 8.253906 473.425781 15.617188 492.355469 C 23.242188 511.914062 33.394531 528.5 49.941406 545.046875 C 66.453125 561.597656 83.039062 571.785156 102.597656 579.371094 C 121.5625 586.734375 143.132812 591.753906 174.816406 593.207031 C 206.574219 594.617188 216.6875 594.992188 297.496094 594.992188 C 378.300781 594.992188 388.378906 594.617188 420.136719 593.207031 C 451.785156 591.71875 473.464844 586.734375 492.390625 579.371094 C 502.316406 575.644531 511.71875 570.886719 520.601562 565.097656 C 529.484375 559.308594 537.632812 552.625 545.046875 545.046875 C 561.597656 528.5 571.75 511.914062 579.371094 492.355469 C 586.699219 473.425781 591.71875 451.820312 593.207031 420.136719 C 594.617188 388.417969 594.992188 378.300781 594.992188 297.496094 C 594.992188 216.6875 594.617188 206.574219 593.207031 174.816406 C 591.71875 143.167969 586.699219 121.527344 579.371094 102.636719 C 575.648438 92.703125 570.890625 83.292969 565.101562 74.40625 C 559.3125 65.519531 552.628906 57.363281 545.046875 49.941406 C 537.628906 42.363281 529.472656 35.679688 520.585938 29.890625 C 511.695312 24.101562 502.285156 19.34375 492.355469 15.617188 C 473.390625 8.253906 451.746094 3.234375 420.101562 1.785156 C 388.34375 0.371094 378.265625 0 297.421875 0 Z M 270.832031 53.625 L 297.53125 53.625 C 376.964844 53.625 386.371094 53.882812 417.71875 55.335938 C 446.726562 56.636719 462.492188 61.507812 472.980469 65.558594 C 486.851562 70.953125 496.78125 77.421875 507.191406 87.835938 C 517.605469 98.246094 524.039062 108.140625 529.429688 122.046875 C 533.519531 132.496094 538.355469 148.265625 539.65625 177.269531 C 541.105469 208.617188 541.402344 218.027344 541.402344 297.421875 C 541.402344 376.816406 541.105469 386.261719 539.65625 417.609375 C 538.355469 446.613281 533.484375 462.34375 529.429688 472.832031 C 527.027344 479.28125 523.949219 485.390625 520.191406 491.15625 C 516.433594 496.921875 512.085938 502.207031 507.15625 507.007812 C 496.742188 517.417969 486.851562 523.851562 472.941406 529.242188 C 462.53125 533.335938 446.761719 538.167969 417.71875 539.507812 C 386.371094 540.921875 376.964844 541.253906 297.53125 541.253906 C 218.101562 541.253906 208.65625 540.921875 177.308594 539.507812 C 148.300781 538.167969 132.570312 533.335938 122.085938 529.242188 C 115.628906 526.851562 109.515625 523.777344 103.742188 520.023438 C 97.972656 516.273438 92.679688 511.933594 87.871094 507.007812 C 82.933594 502.203125 78.578125 496.914062 74.816406 491.140625 C 71.050781 485.367188 67.964844 479.253906 65.5625 472.792969 C 61.507812 462.34375 56.636719 446.578125 55.335938 417.570312 C 53.921875 386.222656 53.625 376.816406 53.625 297.347656 C 53.625 217.878906 53.921875 208.542969 55.335938 177.195312 C 56.671875 148.191406 61.507812 132.421875 65.597656 121.9375 C 70.988281 108.066406 77.460938 98.136719 87.871094 87.722656 C 98.285156 77.3125 108.175781 70.878906 122.085938 65.484375 C 132.570312 61.394531 148.300781 56.5625 177.308594 55.222656 C 204.75 53.957031 215.386719 53.585938 270.832031 53.550781 Z M 456.320312 103.007812 C 455.152344 103.007812 453.984375 103.066406 452.820312 103.179688 C 451.65625 103.292969 450.503906 103.464844 449.355469 103.695312 C 448.210938 103.921875 447.078125 104.207031 445.957031 104.546875 C 444.839844 104.882812 443.738281 105.277344 442.660156 105.726562 C 441.578125 106.171875 440.523438 106.671875 439.492188 107.222656 C 438.460938 107.773438 437.460938 108.375 436.488281 109.023438 C 435.515625 109.671875 434.578125 110.371094 433.671875 111.109375 C 432.769531 111.851562 431.902344 112.636719 431.078125 113.464844 C 430.25 114.289062 429.464844 115.15625 428.722656 116.058594 C 427.984375 116.964844 427.285156 117.902344 426.636719 118.875 C 425.988281 119.847656 425.386719 120.847656 424.835938 121.878906 C 424.285156 122.910156 423.785156 123.964844 423.339844 125.046875 C 422.890625 126.125 422.496094 127.226562 422.160156 128.34375 C 421.820312 129.464844 421.535156 130.597656 421.308594 131.742188 C 421.078125 132.890625 420.90625 134.042969 420.792969 135.207031 C 420.679688 136.371094 420.621094 137.539062 420.621094 138.707031 C 420.621094 139.875 420.679688 141.042969 420.792969 142.207031 C 420.90625 143.371094 421.078125 144.523438 421.308594 145.671875 C 421.535156 146.820312 421.820312 147.953125 422.160156 149.070312 C 422.496094 150.1875 422.890625 151.289062 423.339844 152.367188 C 423.785156 153.449219 424.285156 154.503906 424.835938 155.535156 C 425.386719 156.566406 425.988281 157.570312 426.636719 158.539062 C 427.285156 159.511719 427.984375 160.449219 428.722656 161.355469 C 429.464844 162.257812 430.25 163.125 431.078125 163.949219 C 431.902344 164.777344 432.769531 165.5625 433.671875 166.304688 C 434.578125 167.042969 435.515625 167.742188 436.488281 168.390625 C 437.460938 169.039062 438.460938 169.640625 439.492188 170.191406 C 440.523438 170.742188 441.578125 171.242188 442.660156 171.6875 C 443.738281 172.136719 444.839844 172.53125 445.957031 172.871094 C 447.078125 173.207031 448.210938 173.492188 449.355469 173.71875 C 450.503906 173.949219 451.65625 174.121094 452.820312 174.234375 C 453.984375 174.347656 455.152344 174.40625 456.320312 174.40625 C 457.488281 174.40625 458.65625 174.347656 459.820312 174.234375 C 460.984375 174.121094 462.136719 173.949219 463.285156 173.71875 C 464.433594 173.492188 465.566406 173.207031 466.683594 172.871094 C 467.800781 172.53125 468.902344 172.136719 469.980469 171.6875 C 471.0625 171.242188 472.117188 170.742188 473.148438 170.191406 C 474.179688 169.640625 475.183594 169.039062 476.152344 168.390625 C 477.125 167.742188 478.0625 167.042969 478.96875 166.304688 C 479.871094 165.5625 480.738281 164.777344 481.5625 163.949219 C 482.390625 163.125 483.175781 162.257812 483.917969 161.355469 C 484.660156 160.449219 485.355469 159.511719 486.003906 158.539062 C 486.652344 157.570312 487.253906 156.566406 487.804688 155.535156 C 488.355469 154.503906 488.855469 153.449219 489.300781 152.367188 C 489.75 151.289062 490.144531 150.1875 490.484375 149.070312 C 490.820312 147.953125 491.105469 146.820312 491.332031 145.671875 C 491.5625 144.523438 491.734375 143.371094 491.847656 142.207031 C 491.960938 141.042969 492.019531 139.875 492.019531 138.707031 C 492.019531 137.539062 491.960938 136.371094 491.847656 135.207031 C 491.734375 134.042969 491.5625 132.890625 491.332031 131.742188 C 491.105469 130.597656 490.820312 129.464844 490.484375 128.34375 C 490.144531 127.226562 489.75 126.125 489.300781 125.046875 C 488.855469 123.964844 488.355469 122.910156 487.804688 121.878906 C 487.253906 120.847656 486.652344 119.847656 486.003906 118.875 C 485.355469 117.902344 484.660156 116.964844 483.917969 116.058594 C 483.175781 115.15625 482.390625 114.289062 481.5625 113.464844 C 480.738281 112.636719 479.871094 111.851562 478.96875 111.109375 C 478.0625 110.371094 477.125 109.671875 476.152344 109.023438 C 475.183594 108.375 474.179688 107.773438 473.148438 107.222656 C 472.117188 106.671875 471.0625 106.171875 469.980469 105.726562 C 468.902344 105.277344 467.800781 104.882812 466.683594 104.542969 C 465.566406 104.207031 464.433594 103.921875 463.285156 103.695312 C 462.136719 103.464844 460.984375 103.292969 459.820312 103.179688 C 458.65625 103.066406 457.488281 103.007812 456.320312 103.007812 M 297.53125 144.730469 C 295.007812 144.691406 292.484375 144.714844 289.957031 144.800781 C 287.433594 144.886719 284.914062 145.035156 282.398438 145.246094 C 279.878906 145.457031 277.371094 145.730469 274.867188 146.066406 C 272.363281 146.398438 269.871094 146.796875 267.386719 147.257812 C 264.902344 147.714844 262.433594 148.234375 259.976562 148.816406 C 257.515625 149.398438 255.074219 150.039062 252.648438 150.742188 C 250.222656 151.445312 247.816406 152.207031 245.429688 153.027344 C 243.039062 153.851562 240.675781 154.730469 238.328125 155.667969 C 235.984375 156.609375 233.664062 157.605469 231.371094 158.660156 C 229.074219 159.714844 226.808594 160.824219 224.566406 161.992188 C 222.328125 163.15625 220.117188 164.378906 217.9375 165.65625 C 215.757812 166.929688 213.613281 168.261719 211.5 169.644531 C 209.386719 171.023438 207.308594 172.460938 205.265625 173.945312 C 203.222656 175.429688 201.21875 176.964844 199.253906 178.550781 C 197.285156 180.136719 195.359375 181.769531 193.476562 183.449219 C 191.589844 185.128906 189.746094 186.855469 187.949219 188.628906 C 186.148438 190.398438 184.394531 192.214844 182.683594 194.074219 C 180.972656 195.933594 179.3125 197.832031 177.695312 199.773438 C 176.082031 201.714844 174.515625 203.695312 172.996094 205.714844 C 171.480469 207.734375 170.011719 209.789062 168.597656 211.878906 C 167.183594 213.972656 165.820312 216.097656 164.511719 218.257812 C 163.199219 220.414062 161.945312 222.605469 160.742188 224.828125 C 159.542969 227.050781 158.394531 229.300781 157.304688 231.578125 C 156.214844 233.855469 155.183594 236.160156 154.207031 238.488281 C 153.234375 240.820312 152.316406 243.171875 151.457031 245.546875 C 150.597656 247.921875 149.796875 250.316406 149.058594 252.730469 C 148.316406 255.144531 147.636719 257.578125 147.019531 260.023438 C 146.398438 262.472656 145.839844 264.9375 145.34375 267.410156 C 144.84375 269.886719 144.410156 272.375 144.035156 274.871094 C 143.660156 277.371094 143.347656 279.875 143.097656 282.386719 C 142.847656 284.902344 142.660156 287.417969 142.535156 289.941406 C 142.410156 292.464844 142.347656 294.988281 142.347656 297.515625 C 142.347656 300.039062 142.410156 302.5625 142.535156 305.085938 C 142.660156 307.609375 142.847656 310.125 143.097656 312.640625 C 143.347656 315.152344 143.660156 317.65625 144.035156 320.15625 C 144.410156 322.652344 144.84375 325.140625 145.34375 327.617188 C 145.839844 330.09375 146.398438 332.554688 147.019531 335.003906 C 147.636719 337.449219 148.316406 339.882812 149.058594 342.296875 C 149.796875 344.710938 150.597656 347.105469 151.457031 349.480469 C 152.316406 351.855469 153.234375 354.207031 154.207031 356.539062 C 155.183594 358.867188 156.214844 361.171875 157.304688 363.449219 C 158.394531 365.726562 159.542969 367.976562 160.742188 370.199219 C 161.945312 372.421875 163.199219 374.613281 164.511719 376.769531 C 165.820312 378.929688 167.183594 381.054688 168.597656 383.148438 C 170.011719 385.238281 171.480469 387.292969 172.996094 389.3125 C 174.515625 391.332031 176.082031 393.3125 177.695312 395.253906 C 179.3125 397.195312 180.972656 399.09375 182.683594 400.953125 C 184.394531 402.8125 186.148438 404.628906 187.949219 406.398438 C 189.746094 408.171875 191.589844 409.898438 193.476562 411.578125 C 195.359375 413.257812 197.285156 414.890625 199.253906 416.476562 C 201.21875 418.0625 203.222656 419.597656 205.265625 421.082031 C 207.308594 422.566406 209.386719 424.003906 211.5 425.386719 C 213.613281 426.765625 215.757812 428.097656 217.9375 429.371094 C 220.117188 430.648438 222.328125 431.871094 224.566406 433.035156 C 226.808594 434.203125 229.074219 435.3125 231.371094 436.367188 C 233.664062 437.421875 235.984375 438.417969 238.328125 439.359375 C 240.675781 440.296875 243.039062 441.175781 245.429688 442 C 247.816406 442.820312 250.222656 443.582031 252.648438 444.285156 C 255.074219 444.988281 257.515625 445.628906 259.976562 446.210938 C 262.433594 446.792969 264.902344 447.3125 267.386719 447.773438 C 269.871094 448.230469 272.363281 448.628906 274.867188 448.960938 C 277.371094 449.296875 279.878906 449.570312 282.398438 449.78125 C 284.914062 449.992188 287.433594 450.140625 289.957031 450.226562 C 292.484375 450.3125 295.007812 450.335938 297.53125 450.296875 C 300.007812 450.257812 302.480469 450.160156 304.953125 450 C 307.421875 449.839844 309.886719 449.621094 312.347656 449.34375 C 314.808594 449.066406 317.261719 448.726562 319.703125 448.328125 C 322.148438 447.929688 324.582031 447.472656 327 446.957031 C 329.421875 446.441406 331.832031 445.867188 334.222656 445.234375 C 336.617188 444.601562 338.996094 443.910156 341.355469 443.160156 C 343.714844 442.414062 346.054688 441.605469 348.375 440.746094 C 350.695312 439.882812 352.996094 438.964844 355.269531 437.988281 C 357.546875 437.015625 359.796875 435.988281 362.023438 434.902344 C 364.25 433.820312 366.449219 432.683594 368.621094 431.492188 C 370.789062 430.300781 372.929688 429.058594 375.042969 427.765625 C 377.152344 426.46875 379.230469 425.125 381.273438 423.730469 C 383.320312 422.332031 385.332031 420.890625 387.304688 419.394531 C 389.28125 417.902344 391.21875 416.363281 393.117188 414.777344 C 395.015625 413.1875 396.878906 411.554688 398.699219 409.878906 C 400.519531 408.199219 402.296875 406.480469 404.035156 404.714844 C 405.773438 402.949219 407.464844 401.144531 409.113281 399.296875 C 410.761719 397.453125 412.367188 395.566406 413.925781 393.640625 C 415.480469 391.714844 416.992188 389.753906 418.453125 387.757812 C 419.917969 385.757812 421.328125 383.726562 422.691406 381.660156 C 424.054688 379.59375 425.367188 377.496094 426.628906 375.367188 C 427.890625 373.234375 429.101562 371.074219 430.257812 368.886719 C 431.414062 366.695312 432.515625 364.480469 433.5625 362.238281 C 434.613281 359.996094 435.605469 357.726562 436.546875 355.4375 C 437.484375 353.144531 438.367188 350.832031 439.191406 348.5 C 440.019531 346.164062 440.789062 343.8125 441.5 341.441406 C 442.210938 339.070312 442.863281 336.683594 443.460938 334.28125 C 444.054688 331.875 444.59375 329.460938 445.070312 327.03125 C 445.550781 324.601562 445.96875 322.164062 446.328125 319.714844 C 446.6875 317.265625 446.988281 314.808594 447.226562 312.34375 C 447.46875 309.878906 447.648438 307.410156 447.769531 304.9375 C 447.890625 302.464844 447.949219 299.988281 447.949219 297.515625 C 447.949219 295.039062 447.890625 292.5625 447.769531 290.089844 C 447.648438 287.617188 447.46875 285.148438 447.226562 282.683594 C 446.988281 280.222656 446.6875 277.765625 446.328125 275.3125 C 445.96875 272.863281 445.550781 270.425781 445.070312 267.996094 C 444.59375 265.566406 444.054688 263.152344 443.460938 260.746094 C 442.863281 258.34375 442.210938 255.957031 441.5 253.585938 C 440.789062 251.214844 440.019531 248.863281 439.191406 246.527344 C 438.367188 244.195312 437.484375 241.882812 436.546875 239.589844 C 435.605469 237.300781 434.613281 235.03125 433.5625 232.789062 C 432.515625 230.546875 431.414062 228.332031 430.257812 226.140625 C 429.101562 223.953125 427.890625 221.792969 426.628906 219.664062 C 425.367188 217.53125 424.054688 215.433594 422.691406 213.367188 C 421.328125 211.300781 419.917969 209.269531 418.453125 207.269531 C 416.992188 205.273438 415.480469 203.3125 413.925781 201.386719 C 412.367188 199.460938 410.761719 197.578125 409.113281 195.730469 C 407.464844 193.882812 405.773438 192.078125 404.035156 190.3125 C 402.296875 188.550781 400.519531 186.828125 398.699219 185.148438 C 396.878906 183.472656 395.015625 181.839844 393.117188 180.253906 C 391.21875 178.664062 389.28125 177.125 387.304688 175.632812 C 385.332031 174.136719 383.320312 172.695312 381.273438 171.296875 C 379.230469 169.902344 377.152344 168.558594 375.042969 167.261719 C 372.929688 165.96875 370.789062 164.726562 368.621094 163.535156 C 366.449219 162.34375 364.25 161.207031 362.023438 160.125 C 359.796875 159.039062 357.546875 158.011719 355.269531 157.039062 C 352.996094 156.0625 350.695312 155.144531 348.375 154.28125 C 346.054688 153.421875 343.714844 152.613281 341.355469 151.867188 C 338.996094 151.117188 336.617188 150.425781 334.222656 149.792969 C 331.832031 149.160156 329.421875 148.585938 327 148.070312 C 324.582031 147.554688 322.148438 147.097656 319.703125 146.699219 C 317.261719 146.300781 314.808594 145.960938 312.347656 145.683594 C 309.886719 145.40625 307.421875 145.1875 304.953125 145.027344 C 302.480469 144.867188 300.007812 144.769531 297.53125 144.730469 M 297.53125 198.316406 C 299.15625 198.316406 300.777344 198.355469 302.398438 198.4375 C 304.023438 198.515625 305.640625 198.632812 307.253906 198.792969 C 308.871094 198.949219 310.480469 199.148438 312.089844 199.386719 C 313.695312 199.625 315.292969 199.902344 316.886719 200.21875 C 318.476562 200.535156 320.0625 200.890625 321.636719 201.28125 C 323.210938 201.675781 324.777344 202.109375 326.328125 202.582031 C 327.882812 203.050781 329.425781 203.558594 330.953125 204.105469 C 332.480469 204.652344 333.996094 205.238281 335.496094 205.855469 C 336.996094 206.476562 338.480469 207.136719 339.949219 207.828125 C 341.417969 208.523438 342.867188 209.253906 344.296875 210.015625 C 345.730469 210.78125 347.140625 211.582031 348.535156 212.417969 C 349.925781 213.25 351.300781 214.117188 352.648438 215.019531 C 354 215.921875 355.324219 216.855469 356.628906 217.824219 C 357.933594 218.789062 359.214844 219.789062 360.46875 220.816406 C 361.722656 221.847656 362.953125 222.90625 364.15625 223.996094 C 365.359375 225.085938 366.535156 226.207031 367.683594 227.355469 C 368.832031 228.5 369.949219 229.675781 371.042969 230.878906 C 372.132812 232.082031 373.191406 233.3125 374.222656 234.566406 C 375.253906 235.820312 376.25 237.101562 377.21875 238.402344 C 378.1875 239.707031 379.121094 241.035156 380.023438 242.382812 C 380.925781 243.734375 381.792969 245.105469 382.628906 246.496094 C 383.460938 247.890625 384.261719 249.300781 385.027344 250.734375 C 385.792969 252.164062 386.523438 253.613281 387.21875 255.082031 C 387.914062 256.550781 388.570312 258.035156 389.191406 259.535156 C 389.8125 261.035156 390.398438 262.546875 390.945312 264.078125 C 391.492188 265.605469 392 267.144531 392.472656 268.699219 C 392.941406 270.253906 393.375 271.816406 393.769531 273.390625 C 394.164062 274.964844 394.519531 276.550781 394.835938 278.140625 C 395.15625 279.734375 395.433594 281.332031 395.671875 282.941406 C 395.910156 284.546875 396.105469 286.15625 396.265625 287.773438 C 396.425781 289.386719 396.546875 291.007812 396.625 292.628906 C 396.703125 294.25 396.746094 295.871094 396.742188 297.496094 C 396.746094 299.117188 396.703125 300.742188 396.625 302.363281 C 396.546875 303.984375 396.425781 305.601562 396.265625 307.21875 C 396.105469 308.835938 395.910156 310.445312 395.671875 312.050781 C 395.433594 313.65625 395.15625 315.253906 394.835938 316.847656 C 394.519531 318.441406 394.164062 320.023438 393.769531 321.597656 C 393.375 323.171875 392.941406 324.738281 392.472656 326.292969 C 392 327.84375 391.492188 329.386719 390.945312 330.914062 C 390.398438 332.441406 389.8125 333.957031 389.191406 335.457031 C 388.570312 336.957031 387.914062 338.441406 387.21875 339.90625 C 386.523438 341.375 385.792969 342.824219 385.027344 344.257812 C 384.261719 345.6875 383.460938 347.101562 382.628906 348.492188 C 381.792969 349.886719 380.925781 351.257812 380.023438 352.605469 C 379.121094 353.957031 378.1875 355.28125 377.21875 356.585938 C 376.25 357.890625 375.253906 359.167969 374.222656 360.425781 C 373.191406 361.679688 372.132812 362.90625 371.042969 364.109375 C 369.949219 365.3125 368.832031 366.488281 367.683594 367.636719 C 366.535156 368.785156 365.359375 369.902344 364.15625 370.992188 C 362.953125 372.082031 361.722656 373.144531 360.46875 374.171875 C 359.214844 375.203125 357.933594 376.199219 356.628906 377.167969 C 355.324219 378.132812 354 379.070312 352.648438 379.96875 C 351.300781 380.871094 349.925781 381.738281 348.535156 382.574219 C 347.140625 383.410156 345.730469 384.207031 344.296875 384.972656 C 342.867188 385.738281 341.417969 386.46875 339.949219 387.160156 C 338.480469 387.855469 336.996094 388.511719 335.496094 389.132812 C 333.996094 389.753906 332.480469 390.335938 330.953125 390.882812 C 329.425781 391.429688 327.882812 391.9375 326.328125 392.410156 C 324.777344 392.882812 323.210938 393.3125 321.636719 393.707031 C 320.0625 394.101562 318.476562 394.457031 316.886719 394.773438 C 315.292969 395.089844 313.695312 395.367188 312.089844 395.605469 C 310.480469 395.839844 308.871094 396.039062 307.253906 396.199219 C 305.640625 396.355469 304.023438 396.476562 302.398438 396.554688 C 300.777344 396.632812 299.15625 396.671875 297.53125 396.671875 C 295.910156 396.671875 294.289062 396.632812 292.664062 396.554688 C 291.042969 396.472656 289.425781 396.355469 287.8125 396.195312 C 286.195312 396.035156 284.585938 395.835938 282.980469 395.597656 C 281.375 395.359375 279.777344 395.082031 278.183594 394.765625 C 276.59375 394.449219 275.007812 394.09375 273.433594 393.699219 C 271.859375 393.304688 270.296875 392.875 268.742188 392.402344 C 267.191406 391.929688 265.648438 391.421875 264.121094 390.875 C 262.59375 390.328125 261.078125 389.746094 259.578125 389.125 C 258.078125 388.503906 256.597656 387.84375 255.128906 387.152344 C 253.660156 386.457031 252.210938 385.726562 250.78125 384.960938 C 249.347656 384.195312 247.9375 383.398438 246.546875 382.5625 C 245.152344 381.726562 243.78125 380.859375 242.433594 379.957031 C 241.082031 379.054688 239.757812 378.121094 238.453125 377.15625 C 237.148438 376.1875 235.871094 375.191406 234.613281 374.160156 C 233.359375 373.128906 232.132812 372.070312 230.929688 370.980469 C 229.726562 369.890625 228.550781 368.773438 227.402344 367.625 C 226.253906 366.476562 225.136719 365.300781 224.046875 364.097656 C 222.957031 362.894531 221.898438 361.667969 220.867188 360.414062 C 219.835938 359.15625 218.839844 357.878906 217.871094 356.574219 C 216.90625 355.269531 215.972656 353.945312 215.070312 352.59375 C 214.167969 351.246094 213.300781 349.875 212.464844 348.484375 C 211.628906 347.089844 210.832031 345.679688 210.066406 344.246094 C 209.300781 342.816406 208.570312 341.367188 207.878906 339.898438 C 207.183594 338.433594 206.527344 336.949219 205.90625 335.449219 C 205.285156 333.949219 204.699219 332.433594 204.152344 330.90625 C 203.605469 329.378906 203.097656 327.839844 202.625 326.285156 C 202.15625 324.730469 201.722656 323.167969 201.328125 321.59375 C 200.933594 320.019531 200.578125 318.4375 200.261719 316.84375 C 199.945312 315.25 199.667969 313.652344 199.429688 312.046875 C 199.191406 310.441406 198.992188 308.832031 198.832031 307.214844 C 198.671875 305.601562 198.554688 303.984375 198.472656 302.363281 C 198.394531 300.742188 198.355469 299.117188 198.355469 297.496094 C 198.355469 295.871094 198.394531 294.25 198.472656 292.628906 C 198.554688 291.007812 198.671875 289.390625 198.832031 287.773438 C 198.992188 286.160156 199.191406 284.546875 199.429688 282.941406 C 199.667969 281.335938 199.945312 279.738281 200.261719 278.148438 C 200.578125 276.554688 200.933594 274.972656 201.328125 273.398438 C 201.722656 271.824219 202.15625 270.257812 202.625 268.707031 C 203.097656 267.152344 203.605469 265.613281 204.152344 264.082031 C 204.699219 262.554688 205.285156 261.042969 205.90625 259.542969 C 206.527344 258.042969 207.183594 256.558594 207.878906 255.089844 C 208.570312 253.625 209.300781 252.175781 210.066406 250.742188 C 210.832031 249.3125 211.628906 247.898438 212.464844 246.507812 C 213.300781 245.117188 214.167969 243.746094 215.070312 242.394531 C 215.972656 241.046875 216.90625 239.71875 217.871094 238.414062 C 218.839844 237.113281 219.835938 235.832031 220.867188 234.578125 C 221.898438 233.324219 222.957031 232.09375 224.046875 230.890625 C 225.136719 229.6875 226.253906 228.515625 227.402344 227.367188 C 228.550781 226.21875 229.726562 225.097656 230.929688 224.007812 C 232.132812 222.917969 233.359375 221.859375 234.613281 220.828125 C 235.871094 219.800781 237.148438 218.800781 238.453125 217.835938 C 239.757812 216.867188 241.082031 215.933594 242.433594 215.03125 C 243.78125 214.128906 245.152344 213.261719 246.546875 212.429688 C 247.9375 211.59375 249.347656 210.792969 250.78125 210.027344 C 252.210938 209.261719 253.660156 208.535156 255.128906 207.839844 C 256.597656 207.144531 258.078125 206.488281 259.578125 205.867188 C 261.078125 205.246094 262.59375 204.660156 264.121094 204.113281 C 265.648438 203.570312 267.191406 203.058594 268.742188 202.589844 C 270.296875 202.117188 271.859375 201.683594 273.433594 201.289062 C 275.007812 200.894531 276.59375 200.539062 278.183594 200.222656 C 279.777344 199.90625 281.375 199.628906 282.980469 199.390625 C 284.585938 199.152344 286.195312 198.953125 287.8125 198.796875 C 289.425781 198.636719 291.042969 198.515625 292.664062 198.4375 C 294.289062 198.359375 295.910156 198.316406 297.53125 198.316406 " fill-opacity="1" fill-rule="nonzero"/></g></g></svg>