<svg xmlns="http://www.w3.org/2000/svg" xmlns:xlink="http://www.w3.org/1999/xlink" width="794" zoomAndPan="magnify" viewBox="0 0 595.5 595.499986" height="794" preserveAspectRatio="xMidYMid meet" version="1.0"><defs><clipPath id="3d3b95b5d8"><rect x="0" width="595" y="0" height="595"/></clipPath></defs><g transform="matrix(1, 0, 0, 1, 0, 0)"><g clip-path="url(#3d3b95b5d8)"><path fill="#00b900" d="M 297.496094 0 C 461.527344 0 594.992188 108.289062 594.992188 241.417969 C 594.992188 294.707031 574.351562 342.675781 531.214844 389.941406 C 468.816406 461.785156 329.253906 549.289062 297.496094 562.675781 C 266.628906 575.691406 270.199219 555.347656 271.613281 547.316406 L 271.726562 546.648438 L 275.964844 521.175781 C 276.96875 513.589844 278.007812 501.800781 274.996094 494.289062 C 271.648438 485.996094 258.484375 481.683594 248.816406 479.597656 C 105.832031 460.746094 0 360.75 0 241.417969 C 0 108.289062 133.5 0 297.496094 0 M 186.753906 285.820312 L 130.042969 285.820312 L 130.042969 182.886719 C 130.042969 182.503906 130.003906 182.128906 129.933594 181.757812 C 129.859375 181.386719 129.75 181.023438 129.605469 180.671875 C 129.460938 180.324219 129.28125 179.988281 129.074219 179.671875 C 128.863281 179.359375 128.625 179.066406 128.355469 178.796875 C 128.089844 178.527344 127.796875 178.285156 127.484375 178.074219 C 127.167969 177.863281 126.835938 177.683594 126.488281 177.535156 C 126.136719 177.390625 125.777344 177.277344 125.40625 177.203125 C 125.035156 177.125 124.65625 177.085938 124.277344 177.085938 L 103.378906 177.085938 C 103 177.085938 102.621094 177.121094 102.246094 177.195312 C 101.875 177.269531 101.511719 177.378906 101.160156 177.527344 C 100.808594 177.671875 100.472656 177.851562 100.15625 178.0625 C 99.839844 178.273438 99.546875 178.515625 99.277344 178.78125 C 99.007812 179.050781 98.769531 179.34375 98.554688 179.664062 C 98.34375 179.980469 98.164062 180.3125 98.019531 180.664062 C 97.875 181.015625 97.765625 181.378906 97.691406 181.753906 C 97.617188 182.128906 97.578125 182.503906 97.578125 182.886719 L 97.578125 312.519531 C 97.578125 314.042969 98.210938 315.492188 99.214844 316.496094 L 99.214844 316.535156 L 99.363281 316.683594 C 99.898438 317.210938 100.515625 317.609375 101.210938 317.886719 C 101.90625 318.164062 102.628906 318.296875 103.378906 318.28125 L 186.753906 318.28125 C 189.949219 318.28125 192.515625 315.679688 192.515625 312.480469 L 192.515625 291.65625 C 192.519531 291.277344 192.484375 290.898438 192.414062 290.523438 C 192.339844 290.148438 192.234375 289.785156 192.089844 289.433594 C 191.945312 289.082031 191.769531 288.746094 191.558594 288.425781 C 191.351562 288.109375 191.113281 287.816406 190.84375 287.542969 C 190.578125 287.273438 190.285156 287.03125 189.96875 286.816406 C 189.652344 286.601562 189.320312 286.421875 188.96875 286.273438 C 188.617188 286.125 188.257812 286.015625 187.882812 285.9375 C 187.511719 285.859375 187.132812 285.820312 186.753906 285.820312 M 216.167969 177.085938 C 215.785156 177.085938 215.410156 177.121094 215.035156 177.195312 C 214.664062 177.269531 214.300781 177.378906 213.949219 177.527344 C 213.59375 177.671875 213.261719 177.851562 212.945312 178.0625 C 212.628906 178.273438 212.335938 178.515625 212.066406 178.78125 C 211.796875 179.050781 211.554688 179.34375 211.34375 179.664062 C 211.132812 179.980469 210.953125 180.3125 210.808594 180.664062 C 210.664062 181.015625 210.550781 181.378906 210.476562 181.753906 C 210.402344 182.128906 210.367188 182.503906 210.367188 182.886719 L 210.367188 312.519531 C 210.367188 315.71875 212.96875 318.28125 216.167969 318.28125 L 237.066406 318.28125 C 240.265625 318.28125 242.832031 315.679688 242.832031 312.519531 L 242.832031 182.886719 C 242.832031 182.503906 242.792969 182.128906 242.71875 181.757812 C 242.644531 181.386719 242.535156 181.023438 242.390625 180.671875 C 242.246094 180.324219 242.070312 179.988281 241.859375 179.671875 C 241.652344 179.359375 241.410156 179.066406 241.144531 178.796875 C 240.878906 178.527344 240.585938 178.285156 240.273438 178.074219 C 239.957031 177.863281 239.625 177.683594 239.273438 177.535156 C 238.925781 177.390625 238.566406 177.277344 238.191406 177.203125 C 237.820312 177.125 237.445312 177.085938 237.066406 177.085938 Z M 359.820312 177.085938 C 359.441406 177.085938 359.0625 177.121094 358.6875 177.195312 C 358.316406 177.269531 357.953125 177.378906 357.601562 177.527344 C 357.25 177.671875 356.914062 177.851562 356.597656 178.0625 C 356.28125 178.273438 355.988281 178.515625 355.71875 178.78125 C 355.449219 179.050781 355.207031 179.34375 354.996094 179.664062 C 354.785156 179.980469 354.605469 180.3125 354.460938 180.664062 C 354.316406 181.015625 354.207031 181.378906 354.128906 181.753906 C 354.054688 182.128906 354.019531 182.503906 354.019531 182.886719 L 354.019531 259.863281 L 294.632812 179.6875 L 294.148438 179.128906 L 294.148438 179.09375 L 293.777344 178.71875 L 293.664062 178.609375 L 293.257812 178.273438 L 293.21875 178.273438 L 293.03125 178.125 L 292.921875 178.050781 L 292.734375 177.9375 L 292.4375 177.753906 L 292.363281 177.753906 L 292.25 177.679688 L 291.878906 177.53125 L 291.730469 177.457031 L 291.359375 177.34375 L 291.285156 177.34375 L 291.171875 177.308594 L 290.839844 177.234375 L 290.617188 177.234375 L 290.503906 177.195312 L 290.355469 177.195312 L 290.28125 177.160156 L 268.9375 177.160156 C 268.554688 177.160156 268.179688 177.195312 267.808594 177.269531 C 267.4375 177.34375 267.074219 177.453125 266.722656 177.597656 C 266.375 177.742188 266.039062 177.917969 265.722656 178.128906 C 265.410156 178.339844 265.117188 178.578125 264.847656 178.84375 C 264.578125 179.113281 264.335938 179.402344 264.125 179.71875 C 263.914062 180.03125 263.734375 180.363281 263.585938 180.714844 C 263.441406 181.0625 263.328125 181.425781 263.253906 181.796875 C 263.175781 182.167969 263.136719 182.542969 263.132812 182.921875 L 263.132812 312.554688 C 263.132812 315.753906 265.738281 318.320312 268.9375 318.320312 L 289.761719 318.320312 C 292.996094 318.320312 295.597656 315.71875 295.597656 312.554688 L 295.597656 235.578125 L 355.097656 315.902344 C 355.515625 316.441406 356 316.910156 356.546875 317.316406 L 356.585938 317.351562 L 356.957031 317.578125 L 357.402344 317.800781 L 357.664062 317.910156 L 357.847656 317.984375 L 358.222656 318.097656 L 358.332031 318.097656 C 358.820312 318.222656 359.316406 318.296875 359.820312 318.320312 L 380.644531 318.320312 C 383.878906 318.320312 386.484375 315.71875 386.484375 312.554688 L 386.484375 182.886719 C 386.484375 182.503906 386.445312 182.128906 386.371094 181.753906 C 386.296875 181.378906 386.1875 181.015625 386.042969 180.664062 C 385.894531 180.3125 385.71875 179.980469 385.503906 179.664062 C 385.292969 179.34375 385.054688 179.050781 384.785156 178.78125 C 384.515625 178.515625 384.222656 178.273438 383.90625 178.0625 C 383.589844 177.851562 383.253906 177.671875 382.902344 177.527344 C 382.550781 177.378906 382.1875 177.269531 381.8125 177.195312 C 381.441406 177.121094 381.0625 177.085938 380.683594 177.085938 Z M 501.6875 203.746094 L 501.6875 182.921875 C 501.691406 182.542969 501.65625 182.164062 501.585938 181.789062 C 501.511719 181.414062 501.40625 181.050781 501.261719 180.699219 C 501.117188 180.347656 500.941406 180.011719 500.730469 179.691406 C 500.523438 179.375 500.285156 179.082031 500.015625 178.808594 C 499.75 178.539062 499.457031 178.296875 499.140625 178.082031 C 498.824219 177.867188 498.492188 177.6875 498.140625 177.539062 C 497.789062 177.390625 497.429688 177.28125 497.054688 177.203125 C 496.683594 177.125 496.304688 177.085938 495.925781 177.085938 L 412.550781 177.085938 C 411.804688 177.09375 411.082031 177.242188 410.390625 177.523438 C 409.695312 177.804688 409.078125 178.203125 408.535156 178.71875 L 408.5 178.71875 L 408.460938 178.792969 L 408.386719 178.90625 C 407.328125 180.019531 406.78125 181.347656 406.75 182.886719 L 406.75 312.519531 C 406.75 314.042969 407.382812 315.492188 408.386719 316.496094 L 408.460938 316.609375 L 408.535156 316.683594 C 409.667969 317.738281 411.003906 318.273438 412.550781 318.28125 L 495.925781 318.28125 C 499.121094 318.28125 501.6875 315.679688 501.6875 312.480469 L 501.6875 291.65625 C 501.691406 291.277344 501.65625 290.898438 501.585938 290.523438 C 501.511719 290.148438 501.40625 289.785156 501.261719 289.433594 C 501.117188 289.082031 500.941406 288.746094 500.730469 288.425781 C 500.523438 288.109375 500.285156 287.816406 500.015625 287.542969 C 499.75 287.273438 499.457031 287.03125 499.140625 286.816406 C 498.824219 286.601562 498.492188 286.421875 498.140625 286.273438 C 497.789062 286.125 497.429688 286.015625 497.054688 285.9375 C 496.683594 285.859375 496.304688 285.820312 495.925781 285.820312 L 439.175781 285.820312 L 439.175781 263.914062 L 495.886719 263.914062 C 499.085938 263.914062 501.652344 261.3125 501.652344 258.113281 L 501.652344 237.289062 C 501.652344 236.910156 501.617188 236.53125 501.546875 236.15625 C 501.476562 235.78125 501.367188 235.417969 501.222656 235.066406 C 501.082031 234.714844 500.902344 234.378906 500.695312 234.058594 C 500.484375 233.742188 500.246094 233.449219 499.976562 233.175781 C 499.710938 232.90625 499.417969 232.664062 499.105469 232.449219 C 498.789062 232.234375 498.457031 232.054688 498.105469 231.90625 C 497.753906 231.757812 497.390625 231.648438 497.019531 231.570312 C 496.644531 231.492188 496.269531 231.453125 495.886719 231.453125 L 439.175781 231.453125 L 439.175781 209.546875 L 495.886719 209.546875 C 499.085938 209.546875 501.652344 206.945312 501.652344 203.746094 Z M 501.6875 203.746094 " fill-opacity="1" fill-rule="nonzero"/></g></g></svg>