<svg xmlns="http://www.w3.org/2000/svg" xmlns:xlink="http://www.w3.org/1999/xlink" width="48" zoomAndPan="magnify" viewBox="0 0 36 36.000001" height="48" preserveAspectRatio="xMidYMid meet" version="1.0"><defs><clipPath id="9592d86dd1"><path d="M 4 0 L 32 0 L 32 35.027344 L 4 35.027344 Z M 4 0 " clip-rule="nonzero"/></clipPath></defs><g clip-path="url(#9592d86dd1)"><path fill="#ffa6ae" d="M 18 35.027344 C 18 35.027344 31.136719 22.578125 31.136719 13.136719 C 31.136719 12.273438 31.050781 11.417969 30.882812 10.574219 C 30.714844 9.726562 30.464844 8.90625 30.136719 8.109375 C 29.804688 7.3125 29.402344 6.554688 28.921875 5.835938 C 28.441406 5.121094 27.898438 4.457031 27.289062 3.847656 C 26.679688 3.238281 26.015625 2.691406 25.296875 2.214844 C 24.582031 1.734375 23.824219 1.328125 23.027344 1 C 22.230469 0.667969 21.410156 0.421875 20.5625 0.253906 C 19.714844 0.0859375 18.863281 0 18 0 C 17.136719 0 16.285156 0.0859375 15.4375 0.253906 C 14.589844 0.421875 13.769531 0.667969 12.972656 1 C 12.175781 1.328125 11.417969 1.734375 10.703125 2.214844 C 9.984375 2.691406 9.320312 3.238281 8.710938 3.847656 C 8.101562 4.457031 7.558594 5.121094 7.078125 5.835938 C 6.597656 6.554688 6.195312 7.3125 5.863281 8.109375 C 5.535156 8.90625 5.285156 9.726562 5.117188 10.574219 C 4.949219 11.417969 4.863281 12.273438 4.863281 13.136719 C 4.863281 22.578125 18 35.027344 18 35.027344 M 18 19.703125 C 17.570312 19.703125 17.140625 19.660156 16.71875 19.578125 C 16.296875 19.492188 15.886719 19.367188 15.488281 19.203125 C 15.089844 19.039062 14.710938 18.835938 14.351562 18.597656 C 13.992188 18.355469 13.660156 18.085938 13.355469 17.777344 C 13.050781 17.472656 12.777344 17.140625 12.539062 16.785156 C 12.300781 16.425781 12.097656 16.046875 11.933594 15.648438 C 11.765625 15.25 11.644531 14.839844 11.558594 14.417969 C 11.472656 13.992188 11.433594 13.566406 11.433594 13.136719 C 11.433594 12.703125 11.472656 12.277344 11.558594 11.855469 C 11.644531 11.429688 11.765625 11.019531 11.933594 10.621094 C 12.097656 10.222656 12.300781 9.84375 12.539062 9.488281 C 12.777344 9.128906 13.050781 8.796875 13.355469 8.492188 C 13.660156 8.1875 13.992188 7.914062 14.351562 7.675781 C 14.710938 7.433594 15.089844 7.234375 15.488281 7.066406 C 15.886719 6.902344 16.296875 6.777344 16.71875 6.695312 C 17.140625 6.609375 17.570312 6.566406 18 6.566406 C 18.429688 6.566406 18.859375 6.609375 19.28125 6.695312 C 19.703125 6.777344 20.113281 6.902344 20.511719 7.066406 C 20.910156 7.234375 21.289062 7.433594 21.648438 7.675781 C 22.007812 7.914062 22.339844 8.1875 22.644531 8.492188 C 22.949219 8.796875 23.222656 9.128906 23.460938 9.488281 C 23.699219 9.84375 23.902344 10.222656 24.066406 10.621094 C 24.234375 11.019531 24.355469 11.429688 24.441406 11.855469 C 24.527344 12.277344 24.566406 12.703125 24.566406 13.136719 C 24.566406 13.566406 24.527344 13.992188 24.441406 14.417969 C 24.355469 14.839844 24.234375 15.25 24.066406 15.648438 C 23.902344 16.046875 23.699219 16.425781 23.460938 16.785156 C 23.222656 17.140625 22.949219 17.472656 22.644531 17.777344 C 22.339844 18.085938 22.007812 18.355469 21.648438 18.597656 C 21.289062 18.835938 20.910156 19.039062 20.511719 19.203125 C 20.113281 19.367188 19.703125 19.492188 19.28125 19.578125 C 18.859375 19.660156 18.429688 19.703125 18 19.703125 " fill-opacity="1" fill-rule="nonzero"/></g></svg>