<svg xmlns="http://www.w3.org/2000/svg" xmlns:xlink="http://www.w3.org/1999/xlink" width="48" zoomAndPan="magnify" viewBox="0 0 36 36.000001" height="48" preserveAspectRatio="xMidYMid meet" version="1.0"><defs><clipPath id="6be2897b77"><path d="M 0.488281 2 L 35.511719 2 L 35.511719 34 L 0.488281 34 Z M 0.488281 2 " clip-rule="nonzero"/></clipPath></defs><g clip-path="url(#6be2897b77)"><path fill="#ffa6ae" d="M 28.945312 5.472656 C 28.945312 5.039062 29.027344 4.617188 29.195312 4.214844 C 29.363281 3.8125 29.601562 3.457031 29.90625 3.152344 C 30.214844 2.84375 30.570312 2.605469 30.972656 2.4375 C 31.375 2.273438 31.792969 2.1875 32.230469 2.1875 C 32.664062 2.1875 33.085938 2.273438 33.488281 2.4375 C 33.890625 2.605469 34.242188 2.84375 34.550781 3.152344 C 34.859375 3.457031 35.097656 3.8125 35.261719 4.214844 C 35.429688 4.617188 35.511719 5.039062 35.511719 5.472656 L 35.511719 29.554688 C 35.511719 29.988281 35.429688 30.410156 35.261719 30.8125 C 35.097656 31.214844 34.859375 31.566406 34.550781 31.875 C 34.242188 32.183594 33.890625 32.421875 33.488281 32.585938 C 33.085938 32.753906 32.664062 32.835938 32.230469 32.835938 C 31.792969 32.835938 31.375 32.753906 30.972656 32.585938 C 30.570312 32.421875 30.214844 32.183594 29.90625 31.875 C 29.601562 31.566406 29.363281 31.214844 29.195312 30.8125 C 29.027344 30.410156 28.945312 29.988281 28.945312 29.554688 Z M 26.757812 7.058594 C 22.230469 9.136719 16.820312 10.300781 11.433594 10.683594 L 11.433594 24.335938 C 12.226562 24.382812 13.023438 24.445312 13.8125 24.523438 C 18.308594 24.96875 22.652344 25.984375 26.757812 27.9375 Z M 9.242188 24.222656 L 9.242188 10.800781 C 7.753906 10.859375 6.179688 10.894531 4.847656 10.917969 C 4.558594 10.921875 4.277344 10.953125 3.996094 11.011719 C 3.714844 11.070312 3.441406 11.15625 3.175781 11.269531 C 2.914062 11.382812 2.664062 11.519531 2.425781 11.679688 C 2.1875 11.84375 1.96875 12.023438 1.765625 12.230469 C 1.5625 12.433594 1.382812 12.65625 1.222656 12.894531 C 1.066406 13.132812 0.929688 13.386719 0.820312 13.652344 C 0.710938 13.917969 0.628906 14.191406 0.574219 14.472656 C 0.515625 14.753906 0.488281 15.039062 0.488281 15.324219 L 0.488281 19.703125 C 0.488281 22.125 2.449219 24.074219 4.851562 24.101562 L 5.9375 24.117188 C 7.039062 24.140625 8.140625 24.175781 9.242188 24.222656 M 12.285156 26.589844 C 12.910156 26.636719 13.53125 26.695312 14.148438 26.761719 L 14.699219 30.460938 C 14.761719 30.78125 14.75 31.097656 14.671875 31.414062 C 14.589844 31.730469 14.445312 32.015625 14.238281 32.265625 C 14.027344 32.515625 13.777344 32.710938 13.480469 32.851562 C 13.1875 32.988281 12.875 33.058594 12.550781 33.058594 L 11.347656 33.058594 C 10.914062 33.058594 10.515625 32.941406 10.152344 32.703125 C 9.789062 32.464844 9.519531 32.144531 9.34375 31.746094 L 6.46875 26.320312 C 7.703125 26.347656 8.9375 26.394531 10.171875 26.457031 C 10.886719 26.496094 11.59375 26.539062 12.285156 26.589844 " fill-opacity="1" fill-rule="nonzero"/></g></svg>