<svg xmlns="http://www.w3.org/2000/svg" xmlns:xlink="http://www.w3.org/1999/xlink" width="48" zoomAndPan="magnify" viewBox="0 0 36 36.000001" height="48" preserveAspectRatio="xMidYMid meet" version="1.0"><defs><clipPath id="0b51826ea8"><path d="M 0.488281 0 L 35.511719 0 L 35.511719 35.027344 L 0.488281 35.027344 Z M 0.488281 0 " clip-rule="nonzero"/></clipPath></defs><g clip-path="url(#0b51826ea8)"><path fill="#ffa6ae" d="M 4.613281 1.117188 C 4.804688 0.925781 5.015625 0.757812 5.242188 0.613281 C 5.46875 0.464844 5.710938 0.34375 5.960938 0.25 C 6.214844 0.152344 6.476562 0.0859375 6.742188 0.0429688 C 7.011719 0.00390625 7.28125 -0.0078125 7.550781 0.0078125 C 7.820312 0.0273438 8.085938 0.0703125 8.347656 0.144531 C 8.605469 0.21875 8.855469 0.316406 9.097656 0.445312 C 9.335938 0.570312 9.558594 0.71875 9.765625 0.894531 C 9.972656 1.066406 10.160156 1.261719 10.328125 1.476562 L 14.257812 6.523438 C 14.976562 7.449219 15.230469 8.65625 14.945312 9.792969 L 13.75 14.589844 C 13.613281 15.132812 13.746094 15.601562 14.136719 15.996094 L 19.515625 21.375 C 19.914062 21.769531 20.382812 21.898438 20.925781 21.765625 L 25.71875 20.566406 C 26.289062 20.425781 26.859375 20.414062 27.433594 20.535156 C 28.007812 20.65625 28.527344 20.898438 28.988281 21.257812 L 34.039062 25.183594 C 35.851562 26.597656 36.019531 29.277344 34.394531 30.902344 L 32.132812 33.164062 C 30.511719 34.785156 28.089844 35.496094 25.832031 34.699219 C 19.980469 32.644531 14.863281 29.417969 10.488281 25.023438 C 6.09375 20.648438 2.867188 15.53125 0.808594 9.679688 C 0.0195312 7.425781 0.730469 5.003906 2.347656 3.382812 Z M 4.613281 1.117188 " fill-opacity="1" fill-rule="evenodd"/></g></svg>